<?xml version="1.0" standalone="no"?>
<!DOCTYPE svg PUBLIC "-//W3C//DTD SVG 20010904//EN"
 "http://www.w3.org/TR/2001/REC-SVG-20010904/DTD/svg10.dtd">
<svg version="1.0" xmlns="http://www.w3.org/2000/svg"
 width="512.000000pt" height="512.000000pt" viewBox="0 0 512.000000 512.000000"
 preserveAspectRatio="xMidYMid meet">
<metadata>
Created by potrace 1.15, written by Peter Selinger 2001-2017
</metadata>
<g transform="translate(0.000000,512.000000) scale(0.100000,-0.100000)"
fill="#000000" stroke="none">
<path d="M360 5101 c-91 -29 -142 -61 -211 -130 -70 -70 -106 -130 -133 -220
-14 -50 -16 -255 -16 -2191 0 -2343 -4 -2173 58 -2295 32 -64 143 -175 207
-207 122 -62 -48 -58 2295 -58 2343 0 2173 -4 2295 58 64 32 175 143 207 207
60 118 58 72 58 1104 l0 945 -50 -73 c-138 -200 -354 -382 -599 -506 -230
-115 -354 -115 -556 2 -162 93 -470 349 -591 491 -144 169 -180 334 -191 867
-10 531 24 846 110 1010 59 113 366 398 592 550 149 100 255 145 345 145 133
0 385 -129 618 -317 99 -80 218 -209 282 -306 l40 -59 0 289 c0 312 -4 342
-58 448 -32 64 -143 175 -207 207 -122 62 49 58 -2299 57 -2024 0 -2144 -1
-2196 -18z m671 -399 c121 -126 185 -232 238 -392 55 -165 54 -146 60 -895 7
-797 -1 -733 98 -837 65 -67 144 -118 186 -118 47 0 106 38 203 132 l94 91 0
1023 0 1024 370 0 370 0 0 -1584 c0 -1584 -3 -1746 -36 -1926 -28 -155 -81
-238 -266 -416 -272 -261 -520 -435 -685 -480 -57 -15 -75 -16 -135 -6 -197
34 -485 207 -678 408 -75 79 -150 177 -165 216 -3 8 87 77 256 193 144 99 274
188 289 197 l27 18 79 -98 c111 -137 162 -190 209 -218 39 -23 44 -23 93 -10
62 16 149 80 198 148 64 87 66 102 72 512 l4 369 -88 -78 c-169 -148 -289
-215 -382 -215 -91 0 -259 99 -457 270 -200 173 -303 307 -362 475 l-28 80 -6
645 c-5 573 -7 654 -23 725 -33 144 -114 287 -211 373 l-45 39 308 216 c224
156 311 213 322 207 9 -5 50 -44 91 -88z"/>
<path d="M4088 4121 c-52 -33 -134 -132 -172 -206 -14 -27 -32 -90 -41 -140
-32 -187 -43 -572 -25 -860 17 -269 39 -360 107 -452 85 -114 160 -173 221
-173 89 0 260 186 342 374 19 42 38 76 43 76 5 0 126 -82 270 -183 144 -101
268 -187 275 -191 9 -6 12 168 12 854 l0 861 -152 -105 c-431 -296 -410 -283
-422 -262 -97 164 -248 363 -309 407 -51 37 -90 37 -149 0z"/>
</g>
</svg>
